<svg width="512" height="512" viewBox="0 0 512 512" fill="none" xmlns="http://www.w3.org/2000/svg">
<g clip-path="url(#clip0_375_842)">
<path d="M204.497 165.942L236.198 146.667C243.66 142.133 246.206 132.079 241.903 124.216C237.6 116.353 228.059 113.67 220.597 118.204L165.818 151.524L204.497 165.942Z" fill="#EA4335"/>
<path d="M228.382 215.514C233.764 215.514 239.018 212.559 241.903 207.295C246.206 199.432 243.66 189.378 236.198 184.844L181.419 151.524C173.957 146.99 164.416 149.673 160.113 157.536C155.81 165.399 158.357 175.452 165.818 179.987L220.597 213.306C223.063 214.801 225.738 215.514 228.382 215.514Z" fill="#4285F4"/>
<path d="M282.87 215.514C285.513 215.514 288.189 214.801 290.655 213.307L345.434 179.987L307.254 165.263L275.07 184.844C267.608 189.378 265.046 199.432 269.365 207.295C272.234 212.559 277.488 215.514 282.87 215.514Z" fill="#FBBC04"/>
<path d="M337.617 182.194C343 182.194 348.254 179.256 351.139 173.975C355.442 166.112 352.895 156.058 345.434 151.524L290.655 118.204C283.193 113.67 273.652 116.353 269.349 124.216C265.046 132.079 267.592 142.133 275.054 146.667L329.833 179.986C332.283 181.481 334.974 182.194 337.617 182.194Z" fill="#34A853"/>
<path d="M206.712 317.499C203.355 317.499 200.262 316.693 197.432 315.08C194.602 313.468 192.348 311.263 190.67 308.466C189.024 305.636 188.202 302.493 188.202 299.038C188.202 295.583 189.024 292.457 190.67 289.659C192.348 286.829 194.602 284.608 197.432 282.996C200.262 281.383 203.355 280.577 206.712 280.577C209.377 280.577 211.862 281.054 214.165 282.009C216.469 282.963 218.394 284.296 219.941 286.007L216.09 289.857C214.939 288.574 213.557 287.586 211.944 286.895C210.365 286.204 208.604 285.859 206.663 285.859C204.392 285.859 202.27 286.402 200.295 287.488C198.321 288.574 196.741 290.12 195.557 292.127C194.372 294.135 193.78 296.438 193.78 299.038C193.78 301.638 194.372 303.941 195.557 305.948C196.741 307.956 198.321 309.502 200.295 310.588C202.27 311.674 204.408 312.217 206.712 312.217C208.818 312.217 210.579 311.905 211.994 311.279C213.409 310.654 214.675 309.815 215.794 308.762C216.518 308.038 217.127 307.133 217.621 306.047C218.147 304.961 218.493 303.777 218.657 302.493H206.663V297.557H223.889C224.054 298.479 224.136 299.433 224.136 300.42C224.136 302.658 223.791 304.813 223.1 306.886C222.409 308.926 221.306 310.703 219.793 312.217C216.469 315.738 212.109 317.499 206.712 317.499ZM230.518 281.367H241.822C245.474 281.367 248.666 282.107 251.397 283.588C254.129 285.069 256.218 287.159 257.666 289.857C259.147 292.522 259.887 295.583 259.887 299.038C259.887 302.493 259.147 305.57 257.666 308.268C256.218 310.934 254.129 313.007 251.397 314.488C248.666 315.969 245.474 316.709 241.822 316.709H230.518V281.367ZM241.723 311.427C245.672 311.427 248.748 310.341 250.953 308.17C253.191 305.965 254.31 302.921 254.31 299.038C254.31 295.188 253.191 292.16 250.953 289.956C248.748 287.751 245.672 286.648 241.723 286.648H236.046V311.427H241.723ZM276.406 317.499C273.478 317.499 270.845 316.643 268.509 314.932C266.172 313.221 264.56 310.819 263.671 307.725L268.903 305.603C269.43 307.544 270.351 309.14 271.668 310.391C273.017 311.608 274.629 312.217 276.505 312.217C278.249 312.217 279.73 311.773 280.947 310.884C282.165 309.963 282.774 308.713 282.774 307.133C282.774 305.685 282.231 304.5 281.145 303.579C280.092 302.625 278.233 301.67 275.567 300.716L273.346 299.926C270.977 299.104 268.986 297.919 267.373 296.372C265.761 294.826 264.955 292.786 264.955 290.252C264.955 288.508 265.432 286.895 266.386 285.414C267.34 283.934 268.657 282.765 270.335 281.91C272.046 281.021 273.971 280.577 276.11 280.577C279.203 280.577 281.671 281.334 283.514 282.848C285.357 284.329 286.591 286.007 287.216 287.882L282.231 290.005C281.869 288.886 281.178 287.899 280.158 287.043C279.138 286.188 277.821 285.76 276.209 285.76C274.596 285.76 273.231 286.171 272.112 286.994C271.026 287.817 270.483 288.87 270.483 290.153C270.483 291.371 270.977 292.374 271.964 293.164C272.951 293.954 274.498 294.711 276.604 295.435L278.825 296.175C281.852 297.228 284.189 298.61 285.834 300.321C287.512 302 288.351 304.254 288.351 307.084C288.351 309.387 287.759 311.329 286.574 312.908C285.39 314.455 283.876 315.607 282.033 316.363C280.223 317.12 278.348 317.499 276.406 317.499ZM311.361 317.499C307.938 317.499 304.812 316.693 301.982 315.08C299.152 313.468 296.931 311.246 295.319 308.416C293.706 305.586 292.9 302.46 292.9 299.038C292.9 295.616 293.706 292.489 295.319 289.659C296.931 286.829 299.152 284.608 301.982 282.996C304.812 281.383 307.938 280.577 311.361 280.577C314.026 280.577 316.445 281.071 318.617 282.058C320.822 283.045 322.763 284.477 324.441 286.352L320.492 290.153C319.275 288.705 317.926 287.636 316.445 286.945C314.964 286.221 313.269 285.859 311.361 285.859C308.991 285.859 306.82 286.402 304.845 287.488C302.904 288.574 301.357 290.12 300.205 292.127C299.054 294.102 298.478 296.405 298.478 299.038C298.478 301.67 299.054 303.99 300.205 305.998C301.357 307.972 302.904 309.502 304.845 310.588C306.82 311.674 308.991 312.217 311.361 312.217C315.31 312.217 318.666 310.572 321.43 307.281L325.429 311.131C323.717 313.139 321.661 314.702 319.258 315.82C316.856 316.939 314.224 317.499 311.361 317.499Z" fill="#404040"/>
<path d="M124.985 343.028H130.73L144.551 365.53H144.81L144.551 359.57V343.028H149.345V373.952H144.292L129.78 350.284H129.52L129.78 356.244V373.952H124.985V343.028ZM156.408 343.028H161.245V373.952H156.408V343.028ZM174.565 347.649H165.927V343.028H188.04V347.649H179.402V373.952H174.565V347.649ZM209.973 374.643C207.698 374.643 205.711 374.024 204.012 372.786C202.314 371.519 201.119 369.748 200.428 367.473L203.883 366.048C204.919 369.446 206.949 371.145 209.973 371.145C211.672 371.145 213.025 370.554 214.033 369.374C215.069 368.193 215.587 366.638 215.587 364.709V343.028H219.259V364.407C219.259 366.566 218.856 368.424 218.049 369.978C217.272 371.504 216.178 372.671 214.767 373.477C213.385 374.254 211.787 374.643 209.973 374.643ZM231.968 374.643C230.356 374.643 228.916 374.326 227.649 373.693C226.382 373.059 225.403 372.195 224.712 371.101C224.021 369.978 223.676 368.711 223.676 367.301C223.676 364.968 224.554 363.154 226.31 361.859C228.067 360.534 230.284 359.872 232.962 359.872C234.286 359.872 235.51 360.016 236.633 360.304C237.785 360.592 238.663 360.923 239.268 361.297V359.958C239.268 358.317 238.692 357.007 237.54 356.028C236.388 355.02 234.934 354.516 233.178 354.516C231.94 354.516 230.802 354.79 229.766 355.337C228.729 355.855 227.909 356.589 227.304 357.54L224.54 355.466C225.403 354.142 226.584 353.105 228.081 352.357C229.607 351.608 231.292 351.234 233.135 351.234C236.129 351.234 238.476 352.026 240.175 353.609C241.902 355.164 242.766 357.295 242.766 360.001V373.952H239.268V370.799H239.095C238.461 371.864 237.511 372.771 236.244 373.52C234.977 374.269 233.552 374.643 231.968 374.643ZM232.314 371.404C233.552 371.404 234.704 371.087 235.769 370.453C236.835 369.82 237.684 368.971 238.317 367.905C238.951 366.84 239.268 365.674 239.268 364.407C238.577 363.946 237.727 363.572 236.719 363.284C235.712 362.996 234.646 362.852 233.523 362.852C231.508 362.852 229.982 363.269 228.945 364.104C227.937 364.94 227.433 366.019 227.433 367.344C227.433 368.553 227.894 369.532 228.815 370.281C229.737 371.029 230.903 371.404 232.314 371.404ZM247.873 343.028H251.544V373.952H247.873V343.028ZM263.813 374.643C262.2 374.643 260.761 374.326 259.494 373.693C258.227 373.059 257.248 372.195 256.557 371.101C255.866 369.978 255.52 368.711 255.52 367.301C255.52 364.968 256.399 363.154 258.155 361.859C259.911 360.534 262.128 359.872 264.806 359.872C266.131 359.872 267.354 360.016 268.477 360.304C269.629 360.592 270.507 360.923 271.112 361.297V359.958C271.112 358.317 270.536 357.007 269.384 356.028C268.233 355.02 266.779 354.516 265.022 354.516C263.784 354.516 262.647 354.79 261.61 355.337C260.574 355.855 259.753 356.589 259.148 357.54L256.384 355.466C257.248 354.142 258.428 353.105 259.926 352.357C261.452 351.608 263.136 351.234 264.979 351.234C267.974 351.234 270.32 352.026 272.019 353.609C273.747 355.164 274.61 357.295 274.61 360.001V373.952H271.112V370.799H270.939C270.306 371.864 269.356 372.771 268.089 373.52C266.822 374.269 265.397 374.643 263.813 374.643ZM264.158 371.404C265.397 371.404 266.548 371.087 267.614 370.453C268.679 369.82 269.528 368.971 270.162 367.905C270.795 366.84 271.112 365.674 271.112 364.407C270.421 363.946 269.572 363.572 268.564 363.284C267.556 362.996 266.491 362.852 265.368 362.852C263.352 362.852 261.826 363.269 260.79 364.104C259.782 364.94 259.278 366.019 259.278 367.344C259.278 368.553 259.739 369.532 260.66 370.281C261.581 371.029 262.748 371.404 264.158 371.404ZM279.718 351.925H283.216V355.164H283.389C283.994 354.07 284.958 353.149 286.283 352.4C287.607 351.622 289.018 351.234 290.515 351.234C293.164 351.234 295.18 352.011 296.562 353.566C297.973 355.092 298.678 357.18 298.678 359.829V373.952H295.007V360.39C295.007 358.346 294.518 356.863 293.539 355.942C292.56 355.02 291.221 354.559 289.522 354.559C288.341 354.559 287.276 354.891 286.326 355.553C285.404 356.215 284.685 357.093 284.166 358.187C283.648 359.253 283.389 360.376 283.389 361.556V373.952H279.718V351.925ZM313.257 374.643C311.299 374.643 309.514 374.139 307.902 373.131C306.318 372.124 305.065 370.741 304.144 368.985C303.223 367.2 302.762 365.184 302.762 362.938C302.762 360.721 303.223 358.72 304.144 356.935C305.065 355.15 306.318 353.753 307.902 352.745C309.514 351.738 311.299 351.234 313.257 351.234C314.956 351.234 316.468 351.622 317.792 352.4C319.117 353.149 320.124 354.084 320.815 355.207H320.988L320.815 352.141V343.028H324.487V373.952H320.988V370.713H320.815C320.124 371.807 319.117 372.743 317.792 373.52C316.468 374.269 314.956 374.643 313.257 374.643ZM313.689 371.317C314.985 371.317 316.18 370.972 317.274 370.281C318.397 369.59 319.289 368.611 319.952 367.344C320.643 366.077 320.988 364.608 320.988 362.938C320.988 361.268 320.643 359.8 319.952 358.533C319.289 357.266 318.397 356.287 317.274 355.596C316.18 354.905 314.985 354.559 313.689 354.559C312.422 354.559 311.227 354.905 310.104 355.596C308.981 356.287 308.074 357.28 307.383 358.576C306.721 359.843 306.39 361.297 306.39 362.938C306.39 364.58 306.721 366.048 307.383 367.344C308.074 368.611 308.981 369.59 310.104 370.281C311.227 370.972 312.422 371.317 313.689 371.317ZM329.91 343.028H333.581V352.141L333.408 355.164H333.581C334.186 354.041 335.136 353.105 336.431 352.357C337.756 351.608 339.196 351.234 340.751 351.234C343.428 351.234 345.473 352.026 346.884 353.609C348.294 355.164 349 357.237 349 359.829V373.952H345.329V360.39C345.329 358.403 344.825 356.935 343.817 355.985C342.809 355.035 341.499 354.559 339.887 354.559C338.735 354.559 337.67 354.905 336.691 355.596C335.74 356.287 334.977 357.18 334.402 358.274C333.854 359.368 333.581 360.505 333.581 361.686V373.952H329.91V343.028ZM361.118 374.643C359.505 374.643 358.066 374.326 356.799 373.693C355.532 373.059 354.553 372.195 353.862 371.101C353.171 369.978 352.825 368.711 352.825 367.301C352.825 364.968 353.703 363.154 355.46 361.859C357.216 360.534 359.433 359.872 362.111 359.872C363.436 359.872 364.659 360.016 365.782 360.304C366.934 360.592 367.812 360.923 368.417 361.297V359.958C368.417 358.317 367.841 357.007 366.689 356.028C365.538 355.02 364.084 354.516 362.327 354.516C361.089 354.516 359.952 354.79 358.915 355.337C357.879 355.855 357.058 356.589 356.453 357.54L353.689 355.466C354.553 354.142 355.733 353.105 357.231 352.357C358.757 351.608 360.441 351.234 362.284 351.234C365.278 351.234 367.625 352.026 369.324 353.609C371.052 355.164 371.915 357.295 371.915 360.001V373.952H368.417V370.799H368.244C367.611 371.864 366.661 372.771 365.394 373.52C364.127 374.269 362.701 374.643 361.118 374.643ZM361.463 371.404C362.701 371.404 363.853 371.087 364.919 370.453C365.984 369.82 366.833 368.971 367.467 367.905C368.1 366.84 368.417 365.674 368.417 364.407C367.726 363.946 366.877 363.572 365.869 363.284C364.861 362.996 363.796 362.852 362.673 362.852C360.657 362.852 359.131 363.269 358.094 364.104C357.087 364.94 356.583 366.019 356.583 367.344C356.583 368.553 357.044 369.532 357.965 370.281C358.886 371.029 360.052 371.404 361.463 371.404ZM377.023 351.925H380.521V355.466H380.694C381.126 354.257 381.961 353.264 383.199 352.486C384.437 351.68 385.733 351.277 387.086 351.277C388.094 351.277 388.958 351.421 389.677 351.709V355.682C388.756 355.222 387.719 354.991 386.568 354.991C385.502 354.991 384.523 355.294 383.631 355.898C382.738 356.503 382.018 357.324 381.471 358.36C380.953 359.368 380.694 360.462 380.694 361.643V373.952H377.023V351.925Z" fill="#404040"/>
</g>
<defs>
<clipPath id="clip0_375_842">
<rect width="512" height="512" fill="white"/>
</clipPath>
</defs>
</svg>
